<svg width="64" height="64" viewBox="0 0 64 64" fill="none" xmlns="http://www.w3.org/2000/svg">
<g clip-path="url(#clip0)">
<path d="M31.9482 0C47.0448 0 59.3303 11.7236 59.3303 26.178C59.3303 46.4935 31.9482 64.0003 31.9482 64.0003C31.9482 64.0003 4.56543 46.4935 4.56543 26.178C4.56543 11.7236 16.8515 0 31.9482 0V0ZM51.9397 26.899C51.9397 15.8582 42.989 6.90743 31.9482 6.90743C20.9068 6.90743 11.956 15.8582 11.956 26.899C11.956 37.9404 20.9068 46.8911 31.9482 46.8911C42.989 46.8911 51.9397 37.9404 51.9397 26.899Z" fill="#4AAD7B"/>
<path d="M31.9482 6.90747C42.989 6.90747 51.9397 15.8582 51.9397 26.899C51.9397 37.9404 42.989 46.8912 31.9482 46.8912C20.9068 46.8912 11.9561 37.9404 11.9561 26.899C11.9561 15.8582 20.9068 6.90747 31.9482 6.90747Z" fill="#DBD1C6"/>
<path d="M30.9531 15.7969V35.9843C30.9531 36.6401 30.4633 37.1717 29.8594 37.1717C29.2556 37.1717 28.7658 36.64 28.7658 35.9843H28.7406C28.684 35.8118 28.5339 35.6875 28.3555 35.6875C28.1772 35.6875 28.0271 35.812 27.9705 35.9843H27.9453L27.95 36.0835L27.9453 36.1327C27.9453 36.1764 27.9527 36.2179 27.9636 36.258C28.0875 37.2763 28.8879 38.0624 29.8594 38.0624C30.9165 38.0624 31.7735 37.1319 31.7735 35.9842V15.7969H30.9531Z" fill="#334D5D"/>
<path d="M26.5168 26.1317H26.7471C27.3866 24.9561 29.1809 24.1085 31.299 24.1085C33.417 24.1085 35.2116 24.9561 35.8509 26.1317H36.0811C36.7206 24.9561 38.5152 24.1085 40.6332 24.1085C41.5536 24.1085 42.4105 24.2715 43.1415 24.5485C42.3978 18.2731 37.4425 13.4219 31.4364 13.4219C25.4629 13.4219 20.5285 18.2206 19.7432 24.4466C20.4082 24.2316 21.1624 24.1085 21.9648 24.1085C24.0826 24.1085 25.8775 24.9564 26.5168 26.1317Z" fill="#1C875A"/>
<path d="M26.7462 26.1316C27.3857 24.956 29.18 24.1084 31.2981 24.1084C33.4161 24.1084 35.2107 24.956 35.85 26.1316H35.9641C35.8948 19.1663 34.5155 15.4204 31.4507 13.4219H31.4496C28.3978 15.2551 26.738 19.1574 26.6543 26.1316C26.6543 26.1316 26.7462 26.1316 26.7462 26.1316Z" fill="white"/>
</g>
<defs>
<clipPath id="clip0">
<rect width="64" height="64" fill="white"/>
</clipPath>
</defs>
</svg>
