<svg width="16" height="16" viewBox="0 0 16 16" fill="none" xmlns="http://www.w3.org/2000/svg">
<path d="M11.2915 0.822266H4.2915C2.35851 0.822266 0.791504 2.38927 0.791504 4.32227V11.3223C0.791504 13.2553 2.35851 14.8223 4.2915 14.8223H11.2915C13.2245 14.8223 14.7915 13.2553 14.7915 11.3223V4.32227C14.7915 2.38927 13.2245 0.822266 11.2915 0.822266Z" stroke="white" stroke-linecap="round" stroke-linejoin="round"/>
<path d="M10.5917 7.38148C10.6781 7.96405 10.5786 8.55903 10.3073 9.08179C10.0361 9.60455 9.60689 10.0285 9.08083 10.2932C8.55476 10.558 7.9586 10.6502 7.37714 10.5566C6.79568 10.4631 6.25852 10.1885 5.84208 9.77209C5.42563 9.35564 5.1511 8.81849 5.05754 8.23703C4.96397 7.65556 5.05614 7.0594 5.32092 6.53334C5.5857 6.00727 6.00962 5.5781 6.53238 5.30685C7.05514 5.0356 7.65012 4.93609 8.23269 5.02248C8.82694 5.1106 9.37708 5.3875 9.80188 5.81229C10.2267 6.23708 10.5036 6.78723 10.5917 7.38148Z" stroke="white" stroke-linecap="round" stroke-linejoin="round"/>
</svg>
