<svg width="74" height="71" viewBox="0 0 74 71" fill="none" xmlns="http://www.w3.org/2000/svg">
<path d="M35.1648 7.3811L36.1398 64.8116C36.1715 66.6773 34.6658 68.2043 32.7776 68.2224C30.8895 68.2404 29.3324 66.7422 29.3008 64.877L29.2221 64.8777C29.0368 64.3887 28.5614 64.0395 28.0038 64.0449C27.4462 64.0502 26.9828 64.4088 26.8142 64.9007L26.7355 64.9015L26.7548 65.1834L26.7427 65.3238C26.7448 65.4479 26.7699 65.5659 26.806 65.6796C27.2425 68.5728 29.7829 70.7851 32.8204 70.7561C36.1256 70.7245 38.7603 68.0518 38.7049 64.7867L37.7298 7.35659L35.1648 7.3811Z" fill="#334D5D"/>
<path d="M21.7926 36.915L22.5124 36.9081C24.4553 33.5445 30.0245 31.0797 36.6468 31.0164C43.2692 30.9532 48.921 33.3108 50.9767 36.6362L51.6965 36.6293C53.6392 33.2657 59.2092 30.8009 65.8316 30.7376C68.7093 30.7101 71.3963 31.1482 73.6952 31.9143C71.0668 14.0841 55.3392 0.43101 36.5605 0.610421C17.8836 0.788859 2.68715 14.5879 0.532482 32.3236C2.6013 31.692 4.95348 31.3192 7.46251 31.2953C14.084 31.232 19.737 33.5907 21.7926 36.915Z" fill="#1C875A"/>
<path d="M22.5112 36.9081C24.4539 33.5445 30.0233 31.0796 36.6457 31.0164C43.268 30.9531 48.9199 33.3107 50.9755 36.6361L51.3322 36.6327C50.7793 16.8196 46.2856 6.20423 36.6068 0.610147L36.6033 0.61018C27.1499 5.91654 22.149 17.0677 22.224 36.9108C22.224 36.9108 22.5112 36.9081 22.5112 36.9081Z" fill="white"/>
</svg>
